<svg fill="#000000" xmlns="http://www.w3.org/2000/svg"  viewBox="0 0 50 50" width="50px" height="50px"><path d="M32.887 2c.17 2.459-.632 4.439-1.815 5.891-1.74 2.136-4.306 3.132-5.819 2.836-.284-1.707.421-3.885 1.856-5.64C28.461 3.434 30.46 2.155 32.887 2zM25.579 12.92c1.726 0 3.595-1.749 6.672-1.749 1.387 0 5.363.419 7.555 3.791-.871.631-4.088 2.656-4.088 7.264 0 5.43 4.398 7.309 5.065 7.653-.241.897-1.4 4.009-3.355 6.445-.605.754-2.423 3.649-5.138 3.649-2.465 0-3.403-1.526-6.248-1.526-3.24 0-3.395 1.553-6.547 1.553-.662 0-1.633-.299-2.403-.976-2.733-2.406-7.239-8.625-7.239-16.381 0-7.664 5.083-11.343 9.54-11.343C22.197 11.299 23.795 12.92 25.579 12.92z"/></svg>